<?xml version="1.0" encoding="utf-8"?>
<svg version="1.1" xmlns:xlink="http://www.w3.org/1999/xlink" width="14px" height="14px" xmlns="http://www.w3.org/2000/svg">
  <g transform="matrix(1 0 0 1 -374 -460 )">
    <path d="M 381 460  C 384.92 460  388 463.08  388 467  C 388 470.92  384.92 474  381 474  C 377.08 474  374 470.92  374 467  C 374 463.08  377.08 460  381 460  Z " fill-rule="nonzero" fill="#ffffff" stroke="none" fill-opacity="0" />
    <path d="M 381 460.5  C 384.64 460.5  387.5 463.36  387.5 467  C 387.5 470.64  384.64 473.5  381 473.5  C 377.36 473.5  374.5 470.64  374.5 467  C 374.5 463.36  377.36 460.5  381 460.5  Z " stroke-width="1" stroke="#d9d9d9" fill="none" />
  </g>
</svg>