<?xml version="1.0" encoding="utf-8"?>
<svg version="1.1" xmlns:xlink="http://www.w3.org/1999/xlink" width="11px" height="11px" xmlns="http://www.w3.org/2000/svg">
  <g transform="matrix(1 0 0 1 -670 -422 )">
    <path d="M 675.5 424  C 677.46 424  679 425.54  679 427.5  C 679 429.46  677.46 431  675.5 431  C 673.54 431  672 429.46  672 427.5  C 672 425.54  673.54 424  675.5 424  Z " fill-rule="nonzero" fill="#ffffff" stroke="none" />
    <path d="M 675.5 423.5  C 677.74 423.5  679.5 425.26  679.5 427.5  C 679.5 429.74  677.74 431.5  675.5 431.5  C 673.26 431.5  671.5 429.74  671.5 427.5  C 671.5 425.26  673.26 423.5  675.5 423.5  Z " stroke-width="3" stroke="#ffff00" fill="none" />
  </g>
</svg>